name C:\Users\u0101727\Documents\MyRepositories\upper-imu-dc\Results\main_tracking\Case_52\kinematics_filtered.mot
datacolumns 10
datarows 18
range 2.04000000 2.21000000
endheader 
time	clav_prot	clav_elev	scapula_abduction	scapula_elevation	scapula_upward_rot	scapula_winging	plane_elv	shoulder_elv	axial_rot	
          2.04000000	        -24.65701862	         14.19019761	        -12.93116396	          5.75516815	         29.05094979	         -1.10958349	          5.03035633	          1.20555924	         33.23934617	
          2.05000000	        -24.68030775	         13.85432184	        -12.94571238	          5.55500779	         28.83124771	         -1.08198838	          4.33966057	          1.40276677	         33.88725927	
          2.06000000	        -24.68928096	         13.47678366	        -12.93700916	          5.33246921	         28.57947808	         -1.04387076	          3.58778679	          1.63565029	         34.57115025	
          2.07000000	        -24.68204397	         13.05591851	        -12.90321051	          5.08697542	         28.29344611	         -0.99349470	          2.77319563	          1.90747926	         35.28525233	
          2.08000000	        -24.65697709	         12.59071984	        -12.84300138	          4.81828559	         27.97151705	         -0.92918967	          1.89544621	          2.22106428	         36.02308474	
          2.09000000	        -24.61277336	         12.08093002	        -12.75560266	          4.52653357	         27.61272207	         -0.84941449	          0.95510673	          2.57861492	         36.77776572	
          2.10000000	        -24.54846200	         11.52711404	        -12.64075032	          4.21225954	         27.21684309	         -0.75282323	         -0.04628772	          2.98161040	         37.54225592	
          2.11000000	        -24.46341574	         10.93071195	        -12.49864981	          3.87643439	         26.78446754	         -0.63832965	         -1.10622863	          3.43068846	         38.30952775	
          2.12000000	        -24.35734303	         10.29406740	        -12.32991376	          3.52047629	         26.31700546	         -0.50516654	         -2.22118473	          3.92555724	         39.07266599	
          2.13000000	        -24.23026897	          9.62043072	        -12.13549539	          3.14625997	         25.81666354	         -0.35293631	         -3.38652171	          4.46493418	         39.82491358	
          2.14000000	        -24.08251159	          8.91393627	        -11.91663358	          2.75611830	         25.28637449	         -0.18165006	         -4.59640873	          5.04651462	         40.55968387	
          2.15000000	        -23.91466323	          8.17955423	        -11.67482721	          2.35283535	         24.72968472	          0.00824715	         -5.84373392	          5.66697253	         41.27056526	
          2.16000000	        -23.72758828	          7.42301698	        -11.41185555	          1.93962830	         24.15060916	          0.21586559	         -7.12005444	          6.32199427	         41.95134606	
          2.17000000	        -23.52244871	          6.65071961	        -11.12985742	          1.52011363	         23.55346789	          0.43987472	         -8.41560679	          7.00634600	         42.59608414	
          2.18000000	        -23.30076616	          5.86959378	        -10.83147257	          1.09825174	         22.94272461	          0.67852068	         -9.71939986	          7.71397400	         43.19923807	
          2.19000000	        -23.06452136	          5.08695355	        -10.52003331	          0.67826305	         22.32284982	          0.92965572	        -11.01940600	          8.43813590	         43.75586420	
          2.20000000	        -22.81627800	          4.31031295	        -10.19977090	          0.26451051	         21.69823037	          1.19077855	        -12.30285494	          9.17155859	         44.26186964	
          2.21000000	        -22.55898637	          3.54715264	         -9.87541180	         -0.13865154	         21.07313805	          1.45908536	        -13.55662509	          9.90661582	         44.71429803	
